<svg xmlns="http://www.w3.org/2000/svg" width="561" height="413" viewBox="0 0 561 413" version="1.1"><path d="M 316.500 32.923 C 314.700 34.081, 311.633 34.883, 308.833 34.927 C 304.540 34.994, 297.398 37.291, 292.500 40.179 C 291.400 40.828, 287.575 42.831, 284 44.631 C 273.580 49.878, 264.449 58.412, 249.633 76.749 C 246.535 80.584, 243.996 84.121, 243.990 84.611 C 243.985 85.100, 242.394 87.496, 240.455 89.935 C 238.516 92.374, 236.044 96.373, 234.961 98.821 C 233.878 101.269, 231.506 105.348, 229.690 107.886 C 226.032 112.997, 212 142.471, 212 145.043 C 212 145.584, 211.588 146.809, 211.084 147.764 C 209.421 150.915, 201.650 169.214, 199.385 175.308 C 197.495 180.394, 195.055 184, 193.503 184 C 191.797 184, 142.670 133.925, 137.029 126.435 C 134.570 123.171, 127.820 115.547, 122.029 109.493 C 116.238 103.439, 108.877 94.989, 105.672 90.714 C 90.258 70.158, 82.080 65.363, 75.589 73.077 C 72.977 76.181, 71.924 83.217, 73.889 84.432 C 74.378 84.734, 75.057 86.092, 75.398 87.450 C 76.424 91.536, 94.359 118.119, 103.897 129.692 C 105.604 131.762, 107 133.958, 107 134.573 C 107 135.187, 107.889 136.494, 108.974 137.477 C 110.060 138.460, 111.221 140.120, 111.553 141.165 C 112.066 142.783, 117.611 151.059, 125.500 161.981 C 126.600 163.504, 131.100 169.345, 135.500 174.961 C 139.900 180.577, 144.961 187.045, 146.746 189.336 C 148.531 191.626, 150.392 194.400, 150.881 195.500 C 151.370 196.600, 152.780 198.400, 154.013 199.500 C 155.247 200.600, 160.492 206.998, 165.670 213.717 C 170.849 220.437, 175.516 226.201, 176.043 226.526 C 177.428 227.382, 177.218 231.703, 175.614 235.349 C 174.851 237.082, 173.202 241.425, 171.948 245 C 170.694 248.575, 167.458 256.225, 164.756 262 C 162.055 267.775, 159.200 274.974, 158.413 277.998 C 157.019 283.347, 151.512 297.492, 150.041 299.500 C 149.638 300.050, 147.839 305, 146.042 310.500 C 144.246 316, 142.191 321.850, 141.476 323.500 C 140.761 325.150, 139.391 328.966, 138.431 331.980 C 136.718 337.359, 133.318 345.057, 130.470 350 C 128.631 353.191, 128.608 356.430, 130.413 357.928 C 133.140 360.191, 215.266 358.827, 222 356.407 C 231.595 352.959, 242.981 343.814, 247.560 335.879 C 250.300 331.129, 253 324.795, 253 323.117 C 253 322.173, 253.513 320.887, 254.139 320.261 C 254.766 319.634, 255.825 316.957, 256.494 314.311 C 257.908 308.713, 261.181 307.333, 264.457 310.953 C 265.476 312.079, 266.728 313, 267.239 313 C 267.751 313, 270.746 315.025, 273.897 317.500 C 277.047 319.975, 280.081 322, 280.638 322 C 281.195 322, 282.708 323.125, 284 324.500 C 285.292 325.875, 286.963 327, 287.714 327 C 288.465 327, 291.418 328.575, 294.276 330.500 C 297.135 332.425, 299.917 334, 300.460 334 C 301.002 334, 304.608 335.562, 308.473 337.470 C 331.868 349.023, 365.125 350.900, 387.500 341.931 C 395.923 338.555, 399.936 336.499, 405.844 332.535 C 413.197 327.602, 434.226 306.949, 435.958 302.959 C 436.546 301.607, 439.037 297.800, 441.494 294.500 C 449.644 283.553, 454.670 271.303, 461.186 246.500 C 463.502 237.684, 462.568 166.554, 459.988 155.303 C 457.323 143.677, 454.451 134.857, 450.903 127.399 C 449.306 124.043, 448 120.787, 448 120.164 C 448 119.540, 446.650 116.836, 445 114.154 C 443.350 111.473, 441.995 108.654, 441.989 107.889 C 441.984 107.125, 440.188 104.250, 438 101.500 C 435.812 98.750, 434.016 96.007, 434.011 95.405 C 434.005 94.803, 433.100 93.495, 432 92.500 C 430.900 91.505, 430 90.078, 430 89.331 C 430 87.520, 401.448 57.523, 397.046 54.709 C 395.146 53.494, 392.221 51.670, 390.546 50.655 C 388.871 49.640, 386.573 47.954, 385.440 46.909 C 384.307 45.863, 381.220 44.272, 378.579 43.372 C 375.939 42.473, 370.817 40.193, 367.196 38.305 C 354.285 31.576, 323.649 28.324, 316.500 32.923 M 324.985 144.895 C 322.948 147.037, 320.243 150.974, 318.975 153.645 C 317.707 156.315, 315.853 159.681, 314.855 161.126 C 313.858 162.570, 310.571 169.578, 307.552 176.701 C 304.533 183.823, 301.376 190.967, 300.538 192.575 C 299.699 194.184, 299.010 196.069, 299.006 196.764 C 299.003 197.459, 298.586 198.809, 298.080 199.764 C 297.215 201.394, 295.671 205.298, 289.386 221.743 C 287.966 225.459, 286.173 229.978, 285.402 231.784 C 284.631 233.590, 284 235.714, 284 236.504 C 284 237.294, 282.650 240.597, 281 243.844 C 276.703 252.300, 277.564 254.319, 288.102 260.490 C 289.971 261.584, 293.975 263.953, 297 265.755 C 300.025 267.556, 304.525 269.985, 307 271.151 C 309.475 272.318, 312.625 274.052, 314 275.005 C 315.375 275.958, 317.625 277.082, 319 277.502 C 320.375 277.923, 323.656 279.300, 326.291 280.563 C 334.084 284.298, 336.610 284.516, 340.812 281.818 C 342.840 280.516, 345.211 279.011, 346.081 278.475 C 361.082 269.223, 379.302 248.489, 381.646 238.002 C 381.953 236.626, 383.059 232.526, 384.102 228.892 C 392.622 199.226, 369.938 159.395, 335.561 143.657 C 328.408 140.382, 329.388 140.267, 324.985 144.895" stroke="none" fill="#ea525d" fill-rule="evenodd"/></svg>